# xmcd
#
# Track frame offsets:
#	150
#	17442
#	35017
#	51889
#	76409
#	94306
#	113819
#	130051
#	148139
#	165900
#	187517
#	203013
#
# Disc length: 2871 seconds
#
# Revision: 1
# Processed by: cddbd v1.5.2PL0 Copyright (c) Steve Scherf et al.
# Submitted via: audiograbber 1.83.01
#
DISCID=920b350c
DTITLE=Various Artist - Street Beats V12 S06 CD2
DYEAR=1900
DGENRE=R&B
TTITLE0=Black Eyed Peas - Where Is The Love
TTITLE1=Luther Vandross - Lovely Day (Part 2 Ft Busta Rhymes)
TTITLE2=Pharoahe Monch - Agent Orange
TTITLE3=The RH Factor, Roy Hargrove Ft Erykah Badu and Q-Tip - Poetry (Dj Spinna 
TTITLE3=Remix)
TTITLE4=Skillz - Off The Wall
TTITLE5=Lemar - Dance (With U)(JD Aka Dready Remix)
TTITLE6=Jamelia - Superstar
TTITLE7=112 - Na, Na, Na Ft Supercat
TTITLE8=Kendra Ross - 1st Time
TTITLE9=DMX - Where The Hood At?
TTITLE10=Roy Uadri - It's Real
TTITLE11=Sasha - Dat Sexy Body
EXTD=
EXTT0=
EXTT1=
EXTT2=
EXTT3=
EXTT4=
EXTT5=
EXTT6=
EXTT7=
EXTT8=
EXTT9=
EXTT10=
EXTT11=
PLAYORDER=
